<svg xmlns="http://www.w3.org/2000/svg" viewBox="0 0 64 64">
  <defs>
    <linearGradient id="bodyGrad" x1="0%" y1="0%" x2="0%" y2="100%">
      <stop offset="0%" style="stop-color:#8338ec;stop-opacity:1" />
      <stop offset="50%" style="stop-color:#3730a3;stop-opacity:1" />
      <stop offset="100%" style="stop-color:#1a1f3a;stop-opacity:1" />
    </linearGradient>
    <radialGradient id="glowPink">
      <stop offset="0%" style="stop-color:#ff006e;stop-opacity:1" />
      <stop offset="100%" style="stop-color:#ff006e;stop-opacity:0" />
    </radialGradient>
    <radialGradient id="glowCyan">
      <stop offset="0%" style="stop-color:#00f0ff;stop-opacity:1" />
      <stop offset="100%" style="stop-color:#00f0ff;stop-opacity:0" />
    </radialGradient>
  </defs>

  <!-- Warp aura glow -->
  <ellipse cx="32" cy="35" rx="22" ry="28" fill="url(#glowPink)" opacity="0.15"/>

  <!-- Body -->
  <ellipse cx="32" cy="38" rx="11" ry="15" fill="url(#bodyGrad)"/>

  <!-- Neck -->
  <path d="M 28 28 Q 26 32, 26 35 L 32 38 L 38 35 Q 38 32, 36 28 Z" fill="url(#bodyGrad)"/>

  <!-- Left Head (looking to past) -->
  <g>
    <circle cx="22" cy="18" r="7" fill="url(#bodyGrad)"/>
    <path d="M 16 18 L 12 17 L 16 16 Z" fill="#00f0ff"/>
    <circle cx="20" cy="16" r="2" fill="#00f0ff"/>
    <circle cx="20" cy="16" r="1.2" fill="#ffffff"/>
    <ellipse cx="18" cy="16" rx="4" ry="3" fill="url(#glowCyan)" opacity="0.4"/>
  </g>

  <!-- Right Head (looking to future) -->
  <g>
    <circle cx="42" cy="18" r="7" fill="url(#bodyGrad)"/>
    <path d="M 48 18 L 52 17 L 48 16 Z" fill="#ff006e"/>
    <circle cx="44" cy="16" r="2" fill="#ff006e"/>
    <circle cx="44" cy="16" r="1.2" fill="#ffffff"/>
    <ellipse cx="46" cy="16" rx="4" ry="3" fill="url(#glowPink)" opacity="0.4"/>
  </g>

  <!-- Wings (mystical) -->
  <path d="M 22 35 Q 12 32, 8 38 Q 10 36, 18 38 Z" fill="#8338ec" opacity="0.8"/>
  <path d="M 42 35 Q 52 32, 56 38 Q 54 36, 46 38 Z" fill="#8338ec" opacity="0.8"/>

  <!-- Tail feathers (split, chaotic) -->
  <path d="M 28 50 Q 24 58, 20 62 Q 26 57, 30 52 Z" fill="#ff006e" opacity="0.7"/>
  <path d="M 36 50 Q 40 58, 44 62 Q 38 57, 34 52 Z" fill="#00f0ff" opacity="0.7"/>
  <path d="M 32 50 Q 32 60, 32 64 Q 32 58, 32 52 Z" fill="#8338ec" opacity="0.7"/>

  <!-- Warp energy strands -->
  <path d="M 22 22 Q 28 25, 32 24" stroke="#00f0ff" stroke-width="0.5" fill="none" opacity="0.6"/>
  <path d="M 42 22 Q 36 25, 32 24" stroke="#ff006e" stroke-width="0.5" fill="none" opacity="0.6"/>
</svg>
